<?xml version="1.0" encoding="UTF-8"?>
<svg width="106px" height="106px" viewBox="0 0 106 106" version="1.1" xmlns="http://www.w3.org/2000/svg" xmlns:xlink="http://www.w3.org/1999/xlink">
    <title>编组 8备份</title>
    <g id="页面-1" stroke="none" stroke-width="1" fill="none" fill-rule="evenodd">
        <g id="TECH&amp;DATA" transform="translate(-777.000000, -847.000000)" stroke-width="3">
            <g id="编组-8备份" transform="translate(780.000000, 850.000000)">
                <circle id="椭圆形备份-2" stroke="#F1E1CF" fill="#286291" cx="50" cy="50" r="51.5"></circle>
                <g id="眼睛_eyes" transform="translate(23.000000, 24.000000)" stroke="#FFFFFF">
                    <path d="M27,51 C41.91165,51 54,38.517 54,30 C54,21.483 41.91165,9 27,9 C12.08835,9 0,21.4917 0,30 C0,38.5083 12.08835,51 27,51 Z" id="路径" stroke-linejoin="round"></path>
                    <path d="M27,39 C31.97055,39 36,34.97055 36,30 C36,25.02945 31.97055,21 27,21 C22.02945,21 18,25.02945 18,30 C18,34.97055 22.02945,39 27,39 Z" id="路径" stroke-linejoin="round"></path>
                    <line x1="10.89555" y1="6.39915" x2="14.7873" y2="11.82945" id="路径" stroke-linecap="round"></line>
                    <line x1="44.4375" y1="7.0656" x2="40.5456" y2="12.49605" id="路径" stroke-linecap="round"></line>
                    <line x1="27.0132" y1="0" x2="27.0132" y2="9" id="路径" stroke-linecap="round"></line>
                </g>
            </g>
        </g>
    </g>
</svg>